<mxfile host="app.diagrams.net" modified="2024-07-09T05:59:16.085Z" agent="Mozilla/5.0 (Windows NT 10.0; Win64; x64) AppleWebKit/537.36 (KHTML, like Gecko) Chrome/126.0.0.0 Safari/537.36" etag="dgjqI_TUhXvTGIFkDPKL" version="24.6.4" type="github">
  <diagram id="C5RBs43oDa-KdzZeNtuy" name="Page-1">
    <mxGraphModel dx="1207" dy="719" grid="1" gridSize="10" guides="1" tooltips="1" connect="1" arrows="1" fold="1" page="1" pageScale="1" pageWidth="827" pageHeight="1169" math="0" shadow="0">
      <root>
        <mxCell id="WIyWlLk6GJQsqaUBKTNV-0" />
        <mxCell id="WIyWlLk6GJQsqaUBKTNV-1" parent="WIyWlLk6GJQsqaUBKTNV-0" />
        <mxCell id="WIyWlLk6GJQsqaUBKTNV-2" value="" style="rounded=0;html=1;jettySize=auto;orthogonalLoop=1;fontSize=11;endArrow=block;endFill=0;endSize=8;strokeWidth=1;shadow=0;labelBackgroundColor=none;edgeStyle=orthogonalEdgeStyle;" parent="WIyWlLk6GJQsqaUBKTNV-1" source="WIyWlLk6GJQsqaUBKTNV-3" target="WIyWlLk6GJQsqaUBKTNV-6" edge="1">
          <mxGeometry relative="1" as="geometry" />
        </mxCell>
        <mxCell id="WIyWlLk6GJQsqaUBKTNV-3" value="Data Scrubbing Service cycle start&lt;br&gt;&lt;br&gt;Running in a interval of time&amp;nbsp;" style="rounded=1;whiteSpace=wrap;html=1;fontSize=12;glass=0;strokeWidth=1;shadow=0;" parent="WIyWlLk6GJQsqaUBKTNV-1" vertex="1">
          <mxGeometry x="120" y="70" width="200" height="50" as="geometry" />
        </mxCell>
        <mxCell id="IPmPv5QWfPckUx-3BL-2-4" value="" style="edgeStyle=orthogonalEdgeStyle;rounded=0;orthogonalLoop=1;jettySize=auto;html=1;" parent="WIyWlLk6GJQsqaUBKTNV-1" source="WIyWlLk6GJQsqaUBKTNV-6" target="IPmPv5QWfPckUx-3BL-2-3" edge="1">
          <mxGeometry relative="1" as="geometry" />
        </mxCell>
        <mxCell id="IPmPv5QWfPckUx-3BL-2-13" value="" style="edgeStyle=orthogonalEdgeStyle;rounded=0;orthogonalLoop=1;jettySize=auto;html=1;" parent="WIyWlLk6GJQsqaUBKTNV-1" source="WIyWlLk6GJQsqaUBKTNV-6" target="IPmPv5QWfPckUx-3BL-2-11" edge="1">
          <mxGeometry relative="1" as="geometry" />
        </mxCell>
        <mxCell id="WIyWlLk6GJQsqaUBKTNV-6" value="&lt;b&gt;Archived Detection&lt;/b&gt;&lt;br&gt;&lt;br&gt;&lt;div&gt;By using ltffs identify the archived files&lt;/div&gt;" style="rhombus;whiteSpace=wrap;html=1;shadow=0;fontFamily=Helvetica;fontSize=12;align=center;strokeWidth=1;spacing=6;spacingTop=-4;" parent="WIyWlLk6GJQsqaUBKTNV-1" vertex="1">
          <mxGeometry x="91.25" y="155" width="257.5" height="190" as="geometry" />
        </mxCell>
        <mxCell id="WIyWlLk6GJQsqaUBKTNV-11" value="Data Scrubbing Service cycle end" style="rounded=1;whiteSpace=wrap;html=1;fontSize=12;glass=0;strokeWidth=1;shadow=0;" parent="WIyWlLk6GJQsqaUBKTNV-1" vertex="1">
          <mxGeometry x="115" y="1060" width="210" height="40" as="geometry" />
        </mxCell>
        <mxCell id="IPmPv5QWfPckUx-3BL-2-6" value="" style="edgeStyle=orthogonalEdgeStyle;rounded=0;orthogonalLoop=1;jettySize=auto;html=1;" parent="WIyWlLk6GJQsqaUBKTNV-1" source="IPmPv5QWfPckUx-3BL-2-3" target="IPmPv5QWfPckUx-3BL-2-5" edge="1">
          <mxGeometry relative="1" as="geometry" />
        </mxCell>
        <mxCell id="IPmPv5QWfPckUx-3BL-2-3" value="&lt;br&gt;Generate Archived Table (ARCT) and add the archived blocks" style="rounded=0;whiteSpace=wrap;html=1;" parent="WIyWlLk6GJQsqaUBKTNV-1" vertex="1">
          <mxGeometry x="100" y="390" width="240" height="110" as="geometry" />
        </mxCell>
        <mxCell id="IPmPv5QWfPckUx-3BL-2-8" value="" style="edgeStyle=orthogonalEdgeStyle;rounded=0;orthogonalLoop=1;jettySize=auto;html=1;" parent="WIyWlLk6GJQsqaUBKTNV-1" source="IPmPv5QWfPckUx-3BL-2-5" target="IPmPv5QWfPckUx-3BL-2-7" edge="1">
          <mxGeometry relative="1" as="geometry" />
        </mxCell>
        <mxCell id="IPmPv5QWfPckUx-3BL-2-5" value="&lt;span style=&quot;background-color: white; color: rgb(23, 43, 77); font-family: &amp;quot;Segoe UI&amp;quot;, &amp;quot;sans-serif&amp;quot;; font-size: 10.5pt;&quot;&gt;Use this ARCT table&lt;br&gt;to move content from less erased block to more erased block based on some erase count threshold value, and free the current blocks&lt;/span&gt;" style="rounded=0;whiteSpace=wrap;html=1;" parent="WIyWlLk6GJQsqaUBKTNV-1" vertex="1">
          <mxGeometry x="100" y="585" width="240" height="105" as="geometry" />
        </mxCell>
        <mxCell id="IPmPv5QWfPckUx-3BL-2-10" value="" style="edgeStyle=orthogonalEdgeStyle;rounded=0;orthogonalLoop=1;jettySize=auto;html=1;" parent="WIyWlLk6GJQsqaUBKTNV-1" source="IPmPv5QWfPckUx-3BL-2-7" target="IPmPv5QWfPckUx-3BL-2-9" edge="1">
          <mxGeometry relative="1" as="geometry" />
        </mxCell>
        <mxCell id="IPmPv5QWfPckUx-3BL-2-7" value="Update the ltffs info for these new blocks" style="rounded=0;whiteSpace=wrap;html=1;" parent="WIyWlLk6GJQsqaUBKTNV-1" vertex="1">
          <mxGeometry x="95" y="750" width="250" height="100" as="geometry" />
        </mxCell>
        <mxCell id="IPmPv5QWfPckUx-3BL-2-17" value="" style="edgeStyle=orthogonalEdgeStyle;rounded=0;orthogonalLoop=1;jettySize=auto;html=1;" parent="WIyWlLk6GJQsqaUBKTNV-1" source="IPmPv5QWfPckUx-3BL-2-9" target="WIyWlLk6GJQsqaUBKTNV-11" edge="1">
          <mxGeometry relative="1" as="geometry" />
        </mxCell>
        <mxCell id="IPmPv5QWfPckUx-3BL-2-9" value="&lt;span style=&quot;font-size:10.5pt;line-height:&lt;br/&gt;107%;font-family:&amp;quot;Segoe UI&amp;quot;,&amp;quot;sans-serif&amp;quot;;mso-fareast-font-family:&amp;quot;Malgun Gothic&amp;quot;;&lt;br/&gt;mso-fareast-theme-font:minor-fareast;color:#172B4D;background:white;mso-ansi-language:&lt;br/&gt;EN-US;mso-fareast-language:KO;mso-bidi-language:AR-SA;mso-bidi-font-weight:&lt;br/&gt;bold&quot; lang=&quot;EN-US&quot;&gt;Handover the free blocks with less erase count to ltffs so that wear-leveling algorithm can allocate these blocks again&lt;/span&gt;" style="rounded=0;whiteSpace=wrap;html=1;" parent="WIyWlLk6GJQsqaUBKTNV-1" vertex="1">
          <mxGeometry x="92.5" y="910" width="255" height="100" as="geometry" />
        </mxCell>
        <mxCell id="IPmPv5QWfPckUx-3BL-2-11" value="Reset ARCT table&amp;nbsp;" style="rounded=0;whiteSpace=wrap;html=1;" parent="WIyWlLk6GJQsqaUBKTNV-1" vertex="1">
          <mxGeometry x="414" y="220" width="120" height="60" as="geometry" />
        </mxCell>
        <mxCell id="IPmPv5QWfPckUx-3BL-2-14" value="" style="endArrow=classic;html=1;rounded=0;exitX=0.5;exitY=0;exitDx=0;exitDy=0;entryX=1;entryY=0.5;entryDx=0;entryDy=0;" parent="WIyWlLk6GJQsqaUBKTNV-1" source="IPmPv5QWfPckUx-3BL-2-11" target="WIyWlLk6GJQsqaUBKTNV-3" edge="1">
          <mxGeometry width="50" height="50" relative="1" as="geometry">
            <mxPoint x="480" y="390" as="sourcePoint" />
            <mxPoint x="530" y="340" as="targetPoint" />
            <Array as="points">
              <mxPoint x="474" y="95" />
            </Array>
          </mxGeometry>
        </mxCell>
        <mxCell id="IPmPv5QWfPckUx-3BL-2-15" value="YES" style="text;html=1;align=center;verticalAlign=middle;resizable=0;points=[];autosize=1;strokeColor=none;fillColor=none;" parent="WIyWlLk6GJQsqaUBKTNV-1" vertex="1">
          <mxGeometry x="220" y="330" width="50" height="30" as="geometry" />
        </mxCell>
        <mxCell id="IPmPv5QWfPckUx-3BL-2-16" value="NO" style="text;html=1;align=center;verticalAlign=middle;resizable=0;points=[];autosize=1;strokeColor=none;fillColor=none;" parent="WIyWlLk6GJQsqaUBKTNV-1" vertex="1">
          <mxGeometry x="340" y="220" width="40" height="30" as="geometry" />
        </mxCell>
      </root>
    </mxGraphModel>
  </diagram>
</mxfile>
